<svg version="1.1" baseProfile="full" width="420.75" height="316" viewbox="0 0 420.75 316" xmlns="http://www.w3.org/2000/svg" xmlns:xlink="http://www.w3.org/1999/xlink" xmlns:ev="http://www.w3.org/2001/xml-events" style="font:bold  12pt Helvetica, Helvetica, sans-serif;;stroke-linejoin:round;stroke-linecap:round">
  <title >api</title>
  <desc >#title: api
#direction: bottom
#background: #262626
#stroke: #fff
#fill: #888

[&lt;flow&gt; Flow Network]
[&lt;external&gt; Flow DPS Live]
[&lt;external&gt; Flow DPS Indexer]
[&lt;indexer&gt; Index]
[&lt;dps&gt; DPS API]
[&lt;access&gt; DPS Access API]
[&lt;rosetta&gt; Rosetta API]

[&lt;label&gt; SubmitTransaction]

[Flow DPS Indexer]--&gt;[Index]
[Flow DPS Live]--&gt;[Index]
[Flow DPS Live]&lt;--[Flow Network]
[Index]-&gt;[DPS API]
[DPS API]-&gt;[DPS Access API]
[DPS API]-&gt;[Rosetta API]
[SubmitTransaction]-[Rosetta API]
[Flow Network]&lt;-[SubmitTransaction]

#.flow: fill=#262626 stroke=#00bff3 visual=ellipse dashed title=bold
#.dps: fill=#262626 stroke=#fbb363 title=bold visual=receiver
#.rosetta: fill=#262626 stroke=#fbb363 title=bold visual=transceiver
#.access: fill=#262626 stroke=#fbb363 title=bold visual=transceiver
#.indexer: fill=#262626 stroke=#fbb363 visual=database title=bold
#.external: dashed</desc>
  <rect x="0" y="0" height="316" width="420.75" style="stroke:none; fill:#262626;"></rect>
  <path d="M104 59.5 L104 79.5 L110.4 93.4 L110.4 93.4 " style="stroke:#fff;fill:none;stroke-dasharray:6 6;stroke-width:3;"></path>
  <path d="M102.8 89.6 L110.4 93.4 L112.5 85.2 L113.2 99.5 Z" style="stroke:#fff;fill:#fff;stroke-dasharray:none;stroke-width:3;"></path>
  <path d="M258.3 59.5 L213.3 79.5 L159 105.9 L159 105.9 " style="stroke:#fff;fill:none;stroke-dasharray:6 6;stroke-width:3;"></path>
  <path d="M162.6 98.2 L159 105.9 L167.3 107.8 L153 108.9 Z" style="stroke:#fff;fill:#fff;stroke-dasharray:none;stroke-width:3;"></path>
  <path d="M305.3 65.3 L313.3 79.5 L313.3 103.6 L313.3 103.6 " style="stroke:#fff;fill:none;stroke-dasharray:6 6;stroke-width:3;"></path>
  <path d="M313.2 68.5 L305.3 65.3 L303.9 73.7 L302 59.5 Z" style="stroke:#fff;fill:#fff;stroke-dasharray:none;stroke-width:3;"></path>
  <path d="M124 146.5 L124 166.5 L124 179.8 L124 179.8 " style="stroke:#fff;fill:none;stroke-dasharray:none;stroke-width:3;"></path>
  <path d="M118.7 173.2 L124 179.8 L129.3 173.2 L124 186.5 Z" style="stroke:#fff;fill:#fff;stroke-dasharray:none;stroke-width:3;"></path>
  <path d="M115.3 217.5 L104 237.5 L104 250.8 L104 250.8 " style="stroke:#fff;fill:none;stroke-dasharray:none;stroke-width:3;"></path>
  <path d="M98.7 244.2 L104 250.8 L109.3 244.2 L104 257.5 Z" style="stroke:#fff;fill:#fff;stroke-dasharray:none;stroke-width:3;"></path>
  <path d="M163 217.5 L213.3 237.5 L252.2 254.8 L252.2 254.8 " style="stroke:#fff;fill:none;stroke-dasharray:none;stroke-width:3;"></path>
  <path d="M244 257 L252.2 254.8 L248.3 247.2 L258.3 257.5 Z" style="stroke:#fff;fill:#fff;stroke-dasharray:none;stroke-width:3;"></path>
  <path d="M313.3 217.5 L313.3 237.5 L302 257.5 L302 257.5 " style="stroke:#fff;fill:none;stroke-dasharray:none;stroke-width:3;"></path>
  <path d="M313.3 149 L313.3 166.5 L313.3 186.5 L313.3 186.5 " style="stroke:#fff;fill:none;stroke-dasharray:none;stroke-width:3;"></path>
  <path d="M318.6 155.7 L313.3 149 L307.9 155.7 L313.3 142.4 Z" style="stroke:#fff;fill:#fff;stroke-dasharray:none;stroke-width:3;"></path>
  <ellipse cx="313.3" cy="123" rx="75" ry="19.375" data-name="Flow Network" style="stroke:#00bff3;fill:#262626;stroke-dasharray:6 6;stroke-width:3;"></ellipse>
  <text x="313.5" y="128.9" style="fill: #00bff3;font:bold  12pt Helvetica, Helvetica, sans-serif;text-anchor: middle;" data-name="Flow Network">Flow Network</text>
  <rect x="230.5" y="28.5" height="31" width="126" data-name="Flow DPS Live" style="stroke:#fff;fill:#888;stroke-dasharray:6 6;stroke-width:3;"></rect>
  <text x="293.5" y="50" style="fill: #fff;font:normal  12pt Helvetica, Helvetica, sans-serif;text-anchor: middle;" data-name="Flow DPS Live">Flow DPS Live</text>
  <rect x="28.5" y="28.5" height="31" width="151" data-name="Flow DPS Indexer" style="stroke:#fff;fill:#888;stroke-dasharray:6 6;stroke-width:3;"></rect>
  <text x="104" y="50" style="fill: #fff;font:normal  12pt Helvetica, Helvetica, sans-serif;text-anchor: middle;" data-name="Flow DPS Indexer">Flow DPS Indexer</text>
  <rect x="95.5" y="107.5" height="35" width="58" data-name="Index" style="stroke:none; fill:#262626;"></rect>
  <path d="M95.5 107.5 L95.5 138.5" data-name="Index" style="stroke:#fbb363;fill:none;stroke-dasharray:none;stroke-width:3;"></path>
  <path d="M153.5 107.5 L153.5 138.5" data-name="Index" style="stroke:#fbb363;fill:none;stroke-dasharray:none;stroke-width:3;"></path>
  <ellipse cx="124" cy="107.5" rx="29" ry="6" data-name="Index" style="stroke:#fbb363;fill:#262626;stroke-dasharray:none;stroke-width:3;"></ellipse>
  <path d="M153 138.5 L153 138.8 L152.9 139.1 L152.7 139.4 L152.4 139.7 L152.1 140 L151.7 140.3 L151.3 140.6 L150.7 140.8 L150.1 141.1 L149.5 141.4 L148.7 141.6 L148 141.9 L147.1 142.1 L146.2 142.4 L145.3 142.6 L144.2 142.8 L143.2 143 L142.1 143.2 L140.9 143.4 L139.7 143.5 L138.5 143.7 L137.2 143.8 L135.9 144 L134.6 144.1 L133.2 144.2 L131.9 144.3 L130.5 144.3 L129 144.4 L127.6 144.5 L126.2 144.5 L124.7 144.5 L123.3 144.5 L121.8 144.5 L120.4 144.5 L119 144.4 L117.5 144.3 L116.1 144.3 L114.8 144.2 L113.4 144.1 L112.1 144 L110.8 143.8 L109.5 143.7 L108.3 143.5 L107.1 143.4 L105.9 143.2 L104.8 143 L103.8 142.8 L102.7 142.6 L101.8 142.4 L100.9 142.1 L100 141.9 L99.3 141.6 L98.5 141.4 L97.9 141.1 L97.3 140.8 L96.7 140.6 L96.3 140.3 L95.9 140 L95.6 139.7 L95.3 139.4 L95.1 139.1 L95 138.8 L95 138.5" data-name="Index" style="stroke:#fbb363;fill:#262626;stroke-dasharray:none;stroke-width:3;"></path>
  <text x="124.5" y="133" style="fill: #fbb363;font:bold  12pt Helvetica, Helvetica, sans-serif;text-anchor: middle;" data-name="Index">Index</text>
  <path d="M76.5 186.5 L164.5 186.5 L164.5 217.5 L76.5 217.5 L84.5 202 Z" data-name="DPS API" style="stroke:#fbb363;fill:#262626;stroke-dasharray:none;stroke-width:3;"></path>
  <text x="124.5" y="208" style="fill: #fbb363;font:bold  12pt Helvetica, Helvetica, sans-serif;text-anchor: middle;" data-name="DPS API">DPS API</text>
  <path d="M25.5 257.5 L166.5 257.5 L174.5 273 L166.5 288.5 L25.5 288.5 L33.5 273 Z" data-name="DPS Access API" style="stroke:#fbb363;fill:#262626;stroke-dasharray:none;stroke-width:3;"></path>
  <text x="104" y="279" style="fill: #fbb363;font:bold  12pt Helvetica, Helvetica, sans-serif;text-anchor: middle;" data-name="DPS Access API">DPS Access API</text>
  <path d="M232.5 257.5 L338.5 257.5 L346.5 273 L338.5 288.5 L232.5 288.5 L240.5 273 Z" data-name="Rosetta API" style="stroke:#fbb363;fill:#262626;stroke-dasharray:none;stroke-width:3;"></path>
  <text x="293.5" y="279" style="fill: #fbb363;font:bold  12pt Helvetica, Helvetica, sans-serif;text-anchor: middle;" data-name="Rosetta API">Rosetta API</text>
  <text x="313.5" y="208" style="fill: #fff;font:normal  12pt Helvetica, Helvetica, sans-serif;text-anchor: middle;" data-name="SubmitTransaction">SubmitTransaction</text>
</svg>