<svg version="1.1" baseProfile="full" width="778" height="207.8125" viewbox="0 0 778 207.8125" xmlns="http://www.w3.org/2000/svg" xmlns:xlink="http://www.w3.org/1999/xlink" xmlns:ev="http://www.w3.org/2001/xml-events" style="font:bold  12pt Helvetica, Helvetica, sans-serif;;stroke-linejoin:round;stroke-linecap:round">
  <title >api</title>
  <desc >#title: api
#direction: right
#background: #262626
#stroke: #fff
#fill: #888

[&lt;flow&gt; Flow Network]
[&lt;external&gt; Flow DPS Live]
[&lt;external&gt; Flow DPS Indexer]
[&lt;indexer&gt; Indexer]
[&lt;dps&gt; DPS API]
[&lt;access&gt; DPS Access API]
[&lt;rosetta&gt; Rosetta API]

[&lt;label&gt; SubmitTransaction]

[Flow DPS Indexer]--&gt;[Indexer]
[Flow DPS Live]--&gt;[Indexer]
[Flow DPS Live]&lt;--[Flow Network]
[Indexer]-&gt;[DPS API]
[DPS API]-&gt;[DPS Access API]
[DPS API]-&gt;[Rosetta API]
[SubmitTransaction]-[Rosetta API]
[Flow Network]&lt;-[SubmitTransaction]

#.flow: fill=#262626 stroke=#00bff3 visual=ellipse dashed title=bold
#.dps: fill=#262626 stroke=#fbb363 title=bold visual=receiver
#.rosetta: fill=#262626 stroke=#fbb363 title=bold visual=transceiver
#.access: fill=#262626 stroke=#fbb363 title=bold visual=transceiver
#.indexer: fill=#262626 stroke=#fbb363 visual=database title=bold
#.external: dashed</desc>
  <rect x="0" y="0" height="207.8125" width="778" style="stroke:none; fill:#262626;"></rect>
  <path d="M179.5 44 L199.5 44 L251.5 54.9 L251.5 54.9 " style="stroke:#fff;fill:none;stroke-dasharray:6 6;stroke-width:3;"></path>
  <path d="M243.9 58.8 L251.5 54.9 L246.1 48.4 L258 56.3 Z" style="stroke:#fff;fill:#fff;stroke-dasharray:none;stroke-width:3;"></path>
  <path d="M139.7 125.4 L199.5 99.5 L251.8 80 L251.8 80 " style="stroke:#fff;fill:none;stroke-dasharray:6 6;stroke-width:3;"></path>
  <path d="M247.4 87.3 L251.8 80 L243.6 77.3 L258 77.6 Z" style="stroke:#fff;fill:#fff;stroke-dasharray:none;stroke-width:3;"></path>
  <path d="M173.5 155.5 L199.5 160.9 L219.5 160.9 L219.5 160.9 " style="stroke:#fff;fill:none;stroke-dasharray:6 6;stroke-width:3;"></path>
  <path d="M181.1 151.6 L173.5 155.5 L179 162.1 L167 154.1 Z" style="stroke:#fff;fill:#fff;stroke-dasharray:none;stroke-width:3;"></path>
  <path d="M331 64 L389.5 64 L442.8 64 L442.8 64 " style="stroke:#fff;fill:none;stroke-dasharray:none;stroke-width:3;"></path>
  <path d="M436.2 69.3 L442.8 64 L436.2 58.7 L449.5 64 Z" style="stroke:#fff;fill:#fff;stroke-dasharray:none;stroke-width:3;"></path>
  <path d="M529.5 56 L589.5 44 L602.8 44 L602.8 44 " style="stroke:#fff;fill:none;stroke-dasharray:none;stroke-width:3;"></path>
  <path d="M596.2 49.3 L602.8 44 L596.2 38.7 L609.5 44 Z" style="stroke:#fff;fill:#fff;stroke-dasharray:none;stroke-width:3;"></path>
  <path d="M529.5 78.2 L589.5 99.5 L640.1 122.7 L640.1 122.7 " style="stroke:#fff;fill:none;stroke-dasharray:none;stroke-width:3;"></path>
  <path d="M631.8 124.7 L640.1 122.7 L636.2 115 L646.1 125.4 Z" style="stroke:#fff;fill:#fff;stroke-dasharray:none;stroke-width:3;"></path>
  <path d="M569.5 160.9 L589.5 160.9 L627 152.7 L627 152.7 " style="stroke:#fff;fill:none;stroke-dasharray:none;stroke-width:3;"></path>
  <path d="M376.2 160.9 L389.5 160.9 L409.5 160.9 L409.5 160.9 " style="stroke:#fff;fill:none;stroke-dasharray:none;stroke-width:3;"></path>
  <path d="M382.8 155.6 L376.2 160.9 L382.8 166.3 L369.5 160.9 Z" style="stroke:#fff;fill:#fff;stroke-dasharray:none;stroke-width:3;"></path>
  <ellipse cx="294.5" cy="160.9" rx="75" ry="19.375" data-name="Flow Network" style="stroke:#00bff3;fill:#262626;stroke-dasharray:6 6;stroke-width:3;"></ellipse>
  <text x="294.5" y="166.9" style="fill: #00bff3;font:bold  12pt Helvetica, Helvetica, sans-serif;text-anchor: middle;" data-name="Flow Network">Flow Network</text>
  <rect x="41.5" y="125.5" height="31" width="126" data-name="Flow DPS Live" style="stroke:#fff;fill:#888;stroke-dasharray:6 6;stroke-width:3;"></rect>
  <text x="104.5" y="147" style="fill: #fff;font:normal  12pt Helvetica, Helvetica, sans-serif;text-anchor: middle;" data-name="Flow DPS Live">Flow DPS Live</text>
  <rect x="28.5" y="28.5" height="31" width="151" data-name="Flow DPS Indexer" style="stroke:#fff;fill:#888;stroke-dasharray:6 6;stroke-width:3;"></rect>
  <text x="104" y="50" style="fill: #fff;font:normal  12pt Helvetica, Helvetica, sans-serif;text-anchor: middle;" data-name="Flow DPS Indexer">Flow DPS Indexer</text>
  <rect x="258.5" y="48.5" height="35" width="73" data-name="Indexer" style="stroke:none; fill:#262626;"></rect>
  <path d="M258.5 48.5 L258.5 79.5" data-name="Indexer" style="stroke:#fbb363;fill:none;stroke-dasharray:none;stroke-width:3;"></path>
  <path d="M331.5 48.5 L331.5 79.5" data-name="Indexer" style="stroke:#fbb363;fill:none;stroke-dasharray:none;stroke-width:3;"></path>
  <ellipse cx="294.5" cy="48.5" rx="36.5" ry="6" data-name="Indexer" style="stroke:#fbb363;fill:#262626;stroke-dasharray:none;stroke-width:3;"></ellipse>
  <path d="M331 79.5 L331 79.8 L330.8 80.1 L330.6 80.4 L330.3 80.7 L329.9 81 L329.4 81.3 L328.8 81.6 L328.1 81.8 L327.4 82.1 L326.6 82.4 L325.6 82.6 L324.7 82.9 L323.6 83.1 L322.5 83.4 L321.3 83.6 L320 83.8 L318.7 84 L317.3 84.2 L315.8 84.4 L314.3 84.5 L312.7 84.7 L311.2 84.8 L309.5 85 L307.8 85.1 L306.1 85.2 L304.4 85.3 L302.6 85.3 L300.8 85.4 L299 85.5 L297.2 85.5 L295.4 85.5 L293.6 85.5 L291.8 85.5 L290 85.5 L288.2 85.4 L286.4 85.3 L284.6 85.3 L282.9 85.2 L281.2 85.1 L279.5 85 L277.8 84.8 L276.2 84.7 L274.7 84.5 L273.2 84.4 L271.7 84.2 L270.3 84 L269 83.8 L267.7 83.6 L266.5 83.4 L265.4 83.1 L264.3 82.9 L263.4 82.6 L262.4 82.4 L261.6 82.1 L260.9 81.8 L260.2 81.6 L259.6 81.3 L259.1 81 L258.7 80.7 L258.4 80.4 L258.2 80.1 L258 79.8 L258 79.5" data-name="Indexer" style="stroke:#fbb363;fill:#262626;stroke-dasharray:none;stroke-width:3;"></path>
  <text x="295" y="74" style="fill: #fbb363;font:bold  12pt Helvetica, Helvetica, sans-serif;text-anchor: middle;" data-name="Indexer">Indexer</text>
  <path d="M441.5 48.5 L529.5 48.5 L529.5 79.5 L441.5 79.5 L449.5 64 Z" data-name="DPS API" style="stroke:#fbb363;fill:#262626;stroke-dasharray:none;stroke-width:3;"></path>
  <text x="489.5" y="70" style="fill: #fbb363;font:bold  12pt Helvetica, Helvetica, sans-serif;text-anchor: middle;" data-name="DPS API">DPS API</text>
  <path d="M601.5 28.5 L742.5 28.5 L750.5 44 L742.5 59.5 L601.5 59.5 L609.5 44 Z" data-name="DPS Access API" style="stroke:#fbb363;fill:#262626;stroke-dasharray:none;stroke-width:3;"></path>
  <text x="680" y="50" style="fill: #fbb363;font:bold  12pt Helvetica, Helvetica, sans-serif;text-anchor: middle;" data-name="DPS Access API">DPS Access API</text>
  <path d="M619.5 125.5 L725.5 125.5 L733.5 141 L725.5 156.5 L619.5 156.5 L627.5 141 Z" data-name="Rosetta API" style="stroke:#fbb363;fill:#262626;stroke-dasharray:none;stroke-width:3;"></path>
  <text x="680.5" y="147" style="fill: #fbb363;font:bold  12pt Helvetica, Helvetica, sans-serif;text-anchor: middle;" data-name="Rosetta API">Rosetta API</text>
  <text x="489.5" y="167" style="fill: #fff;font:normal  12pt Helvetica, Helvetica, sans-serif;text-anchor: middle;" data-name="SubmitTransaction">SubmitTransaction</text>
</svg>